<?xml version="1.0" encoding="UTF-8" standalone="no"?>
<!-- Created with Inkscape (http://www.inkscape.org/) -->
<svg
   xmlns:svg="http://www.w3.org/2000/svg"
   xmlns="http://www.w3.org/2000/svg"
   version="1.0"
   width="602.36218"
   height="434.97638"
   id="svg4740">
  <defs
     id="defs4742" />
  <g
     transform="translate(-325.53126,105.99574)"
     id="layer1">
    <g
       transform="matrix(2.7508313,0,0,2.7508313,-552.23377,-496.26934)"
       id="g5657">
      <path
         d="M 388.84375,148.3125 L 388.84375,293.46875 L 390.71875,293.46875 L 390.71875,148.3125 L 388.84375,148.3125 z M 460.71875,148.3125 L 460.71875,293.46875 L 462.59375,293.46875 L 462.59375,148.3125 L 460.71875,148.3125 z"
         id="path2810"
         style="fill:#e7394c;fill-opacity:1;stroke:none;stroke-width:1.87250006;stroke-linecap:butt;stroke-linejoin:miter;stroke-miterlimit:3.86400008;stroke-dasharray:none;stroke-opacity:1" />
      <path
         d="M 529.6875,148.3125 L 529.6875,293.46875 L 531.5625,293.46875 L 531.5625,148.3125 L 529.6875,148.3125 z M 325.53125,148.34375 L 325.53125,293.5 L 327.40625,293.5 L 327.40625,148.34375 L 325.53125,148.34375 z"
         id="path2814"
         style="fill:#0068b3;fill-opacity:1;stroke:none;stroke-width:1.87250006;stroke-linecap:butt;stroke-linejoin:miter;stroke-miterlimit:3.86400008;stroke-dasharray:none;stroke-opacity:1" />
      <path
         d="M 436.53125,148.3125 L 436.53125,293.46875 L 438.40625,293.46875 L 438.40625,148.3125 L 436.53125,148.3125 z M 483.09375,148.34375 L 483.09375,293.5 L 484.96875,293.5 L 484.96875,148.34375 L 483.09375,148.34375 z M 344.03125,148.40625 L 344.03125,293.5625 L 345.90625,293.5625 L 345.90625,148.40625 L 344.03125,148.40625 z"
         id="path2818"
         style="fill:#cdc300;fill-opacity:1;stroke:none;stroke-width:1.87250006;stroke-linecap:butt;stroke-linejoin:miter;stroke-miterlimit:3.86400008;stroke-dasharray:none;stroke-opacity:1" />
      <path
         d="M 353.1875,148.3125 L 353.1875,293.46875 L 355.0625,293.46875 L 355.0625,148.3125 L 353.1875,148.3125 z M 426.59375,148.3125 L 426.59375,293.46875 L 428.46875,293.46875 L 428.46875,148.3125 L 426.59375,148.3125 z"
         id="path2822"
         style="fill:#7fd1f0;fill-opacity:1;stroke:none;stroke-width:1.87250006;stroke-linecap:butt;stroke-linejoin:miter;stroke-miterlimit:3.86400008;stroke-dasharray:none;stroke-opacity:1" />
      <path
         d="M 368.65625,148.3125 L 368.65625,293.46875 L 370.53125,293.46875 L 370.53125,148.3125 L 368.65625,148.3125 z M 499.46875,148.40625 L 499.46875,293.5625 L 501.34375,293.5625 L 501.34375,148.40625 L 499.46875,148.40625 z"
         id="path2826"
         style="fill:#ffdf57;fill-opacity:1;stroke:none;stroke-width:1.87250006;stroke-linecap:butt;stroke-linejoin:miter;stroke-miterlimit:3.86400008;stroke-dasharray:none;stroke-opacity:1" />
      <path
         d="M 404.4375,148.3125 L 404.4375,293.46875 L 406.3125,293.46875 L 406.3125,148.3125 L 404.4375,148.3125 z"
         id="path2846"
         style="fill:#ebdb5f;fill-opacity:1;stroke:none;stroke-width:1.87250006;stroke-linecap:butt;stroke-linejoin:miter;stroke-miterlimit:3.86400008;stroke-dasharray:none;stroke-opacity:1" />
      <path
         d="M 413.71875,148.3125 L 413.71875,293.46875 L 415.59375,293.46875 L 415.59375,148.3125 L 413.71875,148.3125 z M 509.1875,148.3125 L 509.1875,293.46875 L 511.03125,293.46875 L 511.03125,148.3125 L 509.1875,148.3125 z"
         id="path2854"
         style="fill:#009ee2;fill-opacity:1;stroke:none;stroke-width:1.87250006;stroke-linecap:butt;stroke-linejoin:miter;stroke-miterlimit:3.86400008;stroke-dasharray:none;stroke-opacity:1" />
      <path
         d="M 448.25,148.3125 L 448.25,293.46875 L 450.125,293.46875 L 450.125,148.3125 L 448.25,148.3125 z"
         id="path2866"
         style="fill:#f59e4b;fill-opacity:1;stroke:none;stroke-width:1.87250006;stroke-linecap:butt;stroke-linejoin:miter;stroke-miterlimit:3.86400008;stroke-dasharray:none;stroke-opacity:1" />
      <path
         d="M 426.09375,175.625 C 420.95499,175.62501 416.25,178.03 416.25,183.84375 C 416.24999,187.3925 418.695,189.75875 423.15625,190.46875 L 428.15625,191.25 C 429.9475,191.555 430.875,192.18875 430.875,193.40625 C 430.875,193.66812 430.80132,193.90601 430.71875,194.125 C 430.67746,194.23449 430.65259,194.33818 430.59375,194.4375 C 430.06422,195.33135 428.86612,195.81495 427.75,196.03125 C 427.50197,196.07932 427.23164,196.10242 427,196.125 C 426.76836,196.14758 426.57375,196.15625 426.375,196.15625 C 426.01609,196.15625 425.64593,196.15919 425.3125,196.125 C 424.97907,196.09081 424.68678,196.03581 424.375,195.96875 C 422.50434,195.56639 420.97844,194.57656 419.40625,193.15625 L 414.8125,196.125 C 417.68141,199.25969 420.70511,200.66735 424.15625,200.96875 C 424.64927,201.01181 425.145,201.03125 425.65625,201.03125 C 426.21812,201.03125 426.79768,201.01986 427.40625,200.96875 C 427.71053,200.9432 428.03406,200.91665 428.34375,200.875 C 432.36977,200.33358 436.6875,198.31391 436.6875,192.4375 C 436.6875,191.00117 436.30255,189.87123 435.625,188.96875 C 435.48949,188.78825 435.31431,188.6314 435.15625,188.46875 C 433.57568,186.84224 430.90625,186.07891 427.90625,185.59375 L 425.625,185.21875 C 423.32625,184.8475 422.28125,184.19125 422.28125,182.90625 C 422.28125,181.3525 424.3025,180.46875 425.6875,180.46875 C 427.90562,180.46875 429.98663,181.33966 431.53125,182.84375 C 431.75191,183.05862 431.95781,183.29047 432.15625,183.53125 L 436.71875,180.25 C 434.01501,177.24125 430.08125,175.625 426.09375,175.625 z M 451.3125,175.625 C 445.68376,175.625 441.93649,178.97504 440.40625,183.5 C 440.27873,183.87708 440.15878,184.26405 440.0625,184.65625 C 439.77366,185.83284 439.625,187.045 439.625,188.3125 C 439.62499,194.2275 443.06215,199.51919 449.0625,200.75 C 449.91969,200.92583 450.85344,201.03125 451.8125,201.03125 C 455.87001,201.03125 459.4375,198.6275 461.5,194.875 L 456.75,192.59375 C 455.80501,194.75626 453.435,195.96875 451.8125,195.96875 C 447.08126,195.96875 445.65625,191.8275 445.65625,188.3125 C 445.65625,187.97445 445.66738,187.65719 445.6875,187.34375 C 445.98926,182.64208 448.48828,180.6875 451.59375,180.6875 C 453.42687,180.6875 455.23008,181.74074 456.21875,183.5 C 456.35999,183.75132 456.48828,184.03375 456.59375,184.3125 L 461.40625,181.90625 C 459.175,177.9175 456.04375,175.625 451.3125,175.625 z M 325.53125,176.28125 L 325.53125,200.34375 L 334.875,200.34375 C 342.21126,200.34375 347.125,196.86375 347.125,188.3125 C 347.12499,179.76125 342.21125,176.28125 334.875,176.28125 L 325.53125,176.28125 z M 350.75,176.28125 L 350.75,200.34375 L 369.46875,200.34375 L 369.46875,195.6875 L 356.75,195.6875 L 356.75,190 L 367.6875,190 L 367.6875,185.34375 L 356.75,185.34375 L 356.75,180.96875 L 368.4375,180.96875 L 368.4375,176.28125 L 350.75,176.28125 z M 372.625,176.28125 L 372.625,191.96875 C 372.62499,198.55876 378.215,201.03125 382.8125,201.03125 C 387.44375,201.03124 393.03125,198.55875 393.03125,191.96875 L 393.03125,176.28125 L 387,176.28125 L 387,191.46875 C 387,194.1725 385.95625,196.15625 382.8125,196.15625 C 382.42375,196.15625 382.07628,196.1223 381.75,196.0625 C 379.46605,195.64392 378.65625,193.83453 378.65625,191.46875 L 378.65625,176.28125 L 372.625,176.28125 z M 395.75,176.28125 L 395.75,180.96875 L 402.03125,180.96875 L 402.03125,200.34375 L 408.0625,200.34375 L 408.0625,180.96875 L 414.34375,180.96875 L 414.34375,176.28125 L 395.75,176.28125 z M 464,176.28125 L 464,200.34375 L 470,200.34375 L 470,190.21875 L 478.96875,190.21875 L 478.96875,200.34375 L 484.96875,200.34375 L 484.96875,176.28125 L 478.96875,176.28125 L 478.96875,184.9375 L 470,184.9375 L 470,176.28125 L 464,176.28125 z M 489.625,176.28125 L 489.625,200.34375 L 508.375,200.34375 L 508.375,195.6875 L 495.65625,195.6875 L 495.65625,190 L 506.5625,190 L 506.5625,185.34375 L 495.65625,185.34375 L 495.65625,180.96875 L 507.34375,180.96875 L 507.34375,176.28125 L 489.625,176.28125 z M 331.5625,181.375 L 334.96875,181.375 C 339.49875,181.37499 341.125,184.425 341.125,188.3125 C 341.12501,192.19875 339.49625,195.28125 335,195.28125 L 331.5625,195.28125 L 331.5625,181.375 z M 416.15625,201.3125 C 408.48376,201.3125 403.96875,207.24125 403.96875,214 C 403.96874,220.76125 408.48375,226.71875 416.15625,226.71875 C 423.82876,226.71876 428.3125,220.76125 428.3125,214 C 428.3125,207.24125 423.82875,201.3125 416.15625,201.3125 z M 325.53125,201.96875 L 325.53125,226.0625 L 331,226.0625 L 331,210.90625 L 331.0625,210.90625 L 339.875,226.0625 L 345.90625,226.0625 L 345.90625,201.96875 L 340.4375,201.96875 L 340.4375,217.375 L 340.375,217.375 L 331.59375,201.96875 L 325.53125,201.96875 z M 357.21875,201.96875 L 348.34375,226.03125 L 354.75,226.03125 L 355.96875,222.25 L 364.875,222.25 L 366.0625,226.03125 L 372.53125,226.03125 L 363.4375,201.96875 L 357.21875,201.96875 z M 373.03125,201.96875 L 373.03125,206.65625 L 379.3125,206.65625 L 379.3125,226.0625 L 385.34375,226.0625 L 385.34375,206.65625 L 391.625,206.65625 L 391.625,201.96875 L 373.03125,201.96875 z M 394.34375,201.96875 L 394.34375,226.0625 L 400.375,226.0625 L 400.375,201.96875 L 394.34375,201.96875 z M 431.9375,201.96875 L 431.9375,226.0625 L 437.40625,226.0625 L 437.40625,210.90625 L 437.46875,210.90625 L 446.28125,226.0625 L 452.3125,226.0625 L 452.3125,201.96875 L 446.8125,201.96875 L 446.8125,217.375 L 446.75,217.375 L 438,201.96875 L 431.9375,201.96875 z M 463.625,201.96875 L 454.71875,226.03125 L 461.15625,226.03125 L 462.375,222.25 L 471.25,222.25 L 472.46875,226.03125 L 478.9375,226.03125 L 469.84375,201.96875 L 463.625,201.96875 z M 481.34375,201.96875 L 481.34375,226.0625 L 496.78125,226.0625 L 496.78125,220.96875 L 487.375,220.96875 L 487.375,201.96875 L 481.34375,201.96875 z M 416.15625,206.375 C 420.61876,206.37499 422.28125,210.215 422.28125,214 C 422.28126,217.71875 420.61875,221.65625 416.15625,221.65625 C 411.42501,221.65625 410,217.51625 410,214 C 410,213.66203 410.01108,213.34463 410.03125,213.03125 C 410.33375,208.33061 412.86094,206.375 416.15625,206.375 z M 360.375,207.875 L 360.4375,207.875 L 363.40625,217.8125 L 357.375,217.8125 L 360.375,207.875 z M 466.75,207.875 L 466.84375,207.875 L 469.8125,217.8125 L 463.78125,217.8125 L 466.75,207.875 z M 425.5625,227 C 417.89001,227 413.375,232.96 413.375,239.71875 C 413.37499,246.4775 417.89,252.40625 425.5625,252.40625 C 433.23626,252.40626 437.71875,246.4775 437.71875,239.71875 C 437.71875,232.96 433.23625,227 425.5625,227 z M 325.53125,227.6875 L 325.53125,251.75 L 336.46875,251.75 C 337.23328,251.75 337.96919,251.7177 338.65625,251.65625 C 343.46568,251.22608 346.3125,249.22266 346.3125,244.875 C 346.3125,243.54422 345.94903,242.46045 345.3125,241.625 C 345.20641,241.48576 345.08911,241.37605 344.96875,241.25 C 343.88553,240.11552 342.25055,239.50719 340.40625,239.375 L 340.40625,239.3125 C 343.68501,238.56874 345.4375,236.92 345.4375,233.84375 C 345.4375,229.34875 342.1475,227.6875 337.28125,227.6875 L 325.53125,227.6875 z M 349.90625,227.6875 L 349.90625,251.75 L 355.9375,251.75 L 355.9375,227.6875 L 349.90625,227.6875 z M 360.59375,227.6875 L 360.59375,251.75 L 371.53125,251.75 C 372.29609,251.75 373.03152,251.7177 373.71875,251.65625 C 378.52938,251.22608 381.375,249.22266 381.375,244.875 C 381.375,243.54422 381.01131,242.46045 380.375,241.625 C 380.26895,241.48576 380.15157,241.37605 380.03125,241.25 C 378.94838,240.11552 377.31305,239.50719 375.46875,239.375 L 375.46875,239.3125 C 378.74751,238.56874 380.5,236.92 380.5,233.84375 C 380.5,229.34875 377.21,227.6875 372.34375,227.6875 L 360.59375,227.6875 z M 384.96875,227.6875 L 384.96875,251.75 L 400.375,251.75 L 400.375,246.65625 L 391,246.65625 L 391,227.6875 L 384.96875,227.6875 z M 403.75,227.6875 L 403.75,251.75 L 409.78125,251.75 L 409.78125,227.6875 L 403.75,227.6875 z M 439.40625,227.6875 L 439.40625,232.34375 L 445.6875,232.34375 L 445.6875,251.75 L 451.71875,251.75 L 451.71875,232.34375 L 458,232.34375 L 458,227.6875 L 439.40625,227.6875 z M 460.71875,227.6875 L 460.71875,251.75 L 466.75,251.75 L 466.75,241.59375 L 475.6875,241.59375 L 475.6875,251.75 L 481.71875,251.75 L 481.71875,227.6875 L 475.6875,227.6875 L 475.6875,236.3125 L 466.75,236.3125 L 466.75,227.6875 L 460.71875,227.6875 z M 486.375,227.6875 L 486.375,251.75 L 505.09375,251.75 L 505.09375,247.0625 L 492.375,247.0625 L 492.375,241.40625 L 503.3125,241.40625 L 503.3125,236.71875 L 492.375,236.71875 L 492.375,232.34375 L 504.09375,232.34375 L 504.09375,227.6875 L 486.375,227.6875 z M 508.75,227.6875 L 508.75,251.75 L 514.75,251.75 L 514.75,244.75 L 518.375,241.0625 L 524.9375,251.75 L 531.625,251.75 L 522.59375,236.8125 L 531.34375,227.6875 L 523.375,227.6875 L 514.75,237.28125 L 514.75,227.6875 L 508.75,227.6875 z M 425.5625,232.0625 C 430.02376,232.06249 431.6875,235.9325 431.6875,239.71875 C 431.68751,243.4375 430.02375,247.34375 425.5625,247.34375 C 420.83001,247.34375 419.40625,243.23375 419.40625,239.71875 C 419.40625,239.38078 419.41733,239.03214 419.4375,238.71875 C 419.74,234.01797 422.26719,232.0625 425.5625,232.0625 z M 331.28125,232.125 L 336.28125,232.125 C 338.27501,232.125 339.40625,232.5975 339.40625,234.625 C 339.40624,236.38375 338.2075,237.125 336.28125,237.125 L 331.28125,237.125 L 331.28125,232.125 z M 366.34375,232.125 L 371.34375,232.125 C 373.33876,232.125 374.46875,232.5975 374.46875,234.625 C 374.46874,236.38375 373.27125,237.125 371.34375,237.125 L 366.34375,237.125 L 366.34375,232.125 z M 331.34375,241.59375 L 337.3125,241.59375 C 339.54374,241.59374 340.28125,242.47375 340.28125,244.46875 C 340.28127,246.02374 339.4275,247.28125 336.25,247.28125 L 331.34375,247.28125 L 331.34375,241.59375 z M 366.40625,241.59375 L 372.375,241.59375 C 374.60624,241.59374 375.34375,242.47375 375.34375,244.46875 C 375.34376,246.02374 374.48875,247.28125 371.3125,247.28125 L 366.40625,247.28125 L 366.40625,241.59375 z"
         id="path2870"
         style="fill:#000000;fill-opacity:1;fill-rule:evenodd;stroke:none" />
    </g>
  </g>
</svg>
